<?xml version="1.0" encoding="utf-8"?>
<!-- Generator: Adobe Illustrator 17.1.0, SVG Export Plug-In . SVG Version: 6.00 Build 0)  -->
<!DOCTYPE svg PUBLIC "-//W3C//DTD SVG 1.1//EN" "http://www.w3.org/Graphics/SVG/1.1/DTD/svg11.dtd">
<svg version="1.1" id="Layer_1" xmlns="http://www.w3.org/2000/svg" xmlns:xlink="http://www.w3.org/1999/xlink" x="0px" y="0px"
     viewBox="0 0 362.5 319.4" enable-background="new 0 0 362.5 319.4" xml:space="preserve">
<g>
    <g>
        <path fill="#004F58" d="M257.3,64.6c8.8-3.3,18.2-5,27.7-5c4.8,0,9.6,0.5,14.4,1.7c4.8,1.2,9.5,3.1,13.7,6
            c4.2,2.8,7.9,6.6,10.7,10.9c2.8,4.3,4.7,9,5.9,13.9c1.2,4.8,1.8,9.7,1.9,14.6c0.2,4.9-0.1,9.7-0.7,14.4l0,0.4l-0.1,0.3
            c-0.4,1.2-0.7,2.8-1,4.2c-0.3,1.4-0.6,2.9-0.8,4.4c-0.5,2.9-0.8,5.9-1,8.9c-0.4,5.9-0.2,11.9,1,17.7c0.6,2.9,1.4,5.7,2.5,8.5
            c1.1,2.7,2.5,5.3,4.2,7.8c1.7,2.4,3.7,4.7,6,6.8c2.3,2,4.8,3.8,7.5,5.5c-5.9-1.9-11.6-5.4-16-10.1c-4.5-4.7-7.6-10.7-9.6-17
            c-1.9-6.3-2.7-12.8-2.6-19.3c0-3.2,0.2-6.5,0.6-9.7c0.2-1.6,0.4-3.2,0.7-4.8c0.3-1.6,0.6-3.1,1.1-4.9l-0.1,0.7
            c0.8-8.9,0.8-17.9-1.2-26.3c-1-4.2-2.5-8.2-4.7-11.8c-2.1-3.6-4.9-6.7-8.3-9.3c-6.7-5.2-15.4-7.8-24.3-8.9
            c-4.5-0.5-9.1-0.7-13.6-0.6C266.5,63.5,261.9,63.9,257.3,64.6z"/>
    </g>
    <g>
        <path fill="#004F58" d="M257.5,306.7c4.6,0.7,9.2,1,13.8,1.1c4.6,0.1,9.2-0.1,13.6-0.6c8.9-1.1,17.6-3.8,24.3-9
            c3.3-2.6,6.1-5.7,8.2-9.3c2.1-3.6,3.6-7.6,4.6-11.8c2-8.4,1.9-17.4,1.1-26.3l0.1,0.7c-0.5-1.7-0.8-3.3-1.1-4.9
            c-0.3-1.6-0.5-3.2-0.7-4.8c-0.4-3.2-0.6-6.5-0.7-9.7c-0.1-6.5,0.7-13,2.5-19.3c1.9-6.2,5-12.3,9.5-17c4.4-4.8,10-8.3,16-10.2
            c-2.7,1.6-5.2,3.5-7.4,5.5c-2.2,2.1-4.3,4.3-6,6.8c-1.7,2.5-3.1,5.1-4.2,7.8c-1.1,2.7-1.9,5.6-2.5,8.5c-1.2,5.8-1.4,11.8-1,17.7
            c0.2,3,0.6,5.9,1.1,8.9c0.2,1.5,0.5,2.9,0.9,4.4c0.3,1.4,0.7,2.9,1.1,4.2l0.1,0.3l0,0.4c0.6,4.8,0.9,9.6,0.8,14.4
            c-0.1,4.9-0.7,9.8-1.9,14.6c-1.2,4.8-3.1,9.6-5.9,13.9c-2.8,4.3-6.4,8.1-10.6,10.9c-4.2,2.9-8.9,4.8-13.6,6.1
            c-4.8,1.3-9.6,1.7-14.4,1.8C275.7,311.6,266.3,309.9,257.5,306.7z"/>
    </g>
</g>
<g>
    <g>
        <path fill="#004F58" d="M125.4,67.4c-4.5-1.1-9-2-13.6-2.6c-4.5-0.6-9.1-0.9-13.6-0.9c-9,0.1-17.9,1.8-25,6.3
            c-3.5,2.2-6.6,5.1-9,8.4c-2.4,3.4-4.3,7.2-5.6,11.3c-2.7,8.2-3.3,17.1-3.3,26l-0.1-0.7c0.3,1.8,0.5,3.3,0.7,4.9
            c0.2,1.6,0.3,3.2,0.3,4.8c0.2,3.2,0.1,6.4-0.1,9.7c-0.5,6.4-1.7,12.9-4.1,19c-2.4,6-6,11.8-10.9,16.1c-4.8,4.4-10.7,7.2-16.8,8.6
            c2.8-1.3,5.5-2.9,7.9-4.7c2.4-1.8,4.6-3.9,6.5-6.1c1.9-2.3,3.5-4.8,4.8-7.4c1.3-2.6,2.4-5.4,3.2-8.2c1.6-5.6,2.3-11.6,2.4-17.5
            c0-3-0.1-5.9-0.3-8.9c-0.1-1.5-0.3-3-0.5-4.4c-0.2-1.4-0.4-3-0.7-4.2l-0.1-0.3l0-0.4c-0.2-4.8-0.1-9.6,0.4-14.4
            c0.5-4.8,1.5-9.7,3.1-14.4c1.6-4.7,3.9-9.3,7.1-13.3c3.1-4,7.2-7.4,11.6-9.8c4.5-2.4,9.3-3.9,14.2-4.5c4.9-0.7,9.7-0.6,14.5-0.2
            C107.9,60.6,117,63.2,125.4,67.4z"/>
    </g>
    <g>
        <path fill="#004F58" d="M106,308.5c-9.1,2.3-18.7,3-28.2,2c-4.8-0.6-9.6-1.5-14.2-3.3c-4.6-1.7-9.1-4.2-13-7.4
            c-3.9-3.2-7.2-7.3-9.6-11.8c-2.4-4.5-3.9-9.4-4.8-14.4c-0.8-4.9-1-9.9-0.7-14.8c0.2-4.9,0.9-9.7,1.9-14.4l0.1-0.4l0.1-0.3
            c0.5-1.2,1-2.7,1.4-4.1c0.4-1.4,0.8-2.9,1.2-4.3c0.7-2.9,1.3-5.8,1.8-8.8c0.9-5.9,1.1-11.9,0.4-17.8c-0.3-2.9-0.9-5.9-1.8-8.7
            c-0.9-2.8-2.1-5.6-3.6-8.2c-1.5-2.6-3.3-5-5.4-7.3c-2.1-2.3-4.4-4.3-6.9-6.2c5.7,2.6,11,6.5,15,11.7c4.1,5.1,6.7,11.4,8.1,17.8
            c1.4,6.4,1.6,13.1,1.1,19.5c-0.3,3.2-0.8,6.5-1.4,9.7c-0.3,1.6-0.7,3.2-1.1,4.8c-0.4,1.6-0.9,3.1-1.5,4.8l0.2-0.7
            c-1.5,8.9-2.3,17.9-1,26.4c0.6,4.3,1.8,8.4,3.7,12.2c1.8,3.8,4.3,7.2,7.4,10.1c6.2,5.8,14.6,9.4,23.4,11.5c4.4,1,9,1.7,13.6,2.1
            C96.7,308.5,101.4,308.7,106,308.5z"/>
    </g>
</g>
<g>
    <path fill="#007887" d="M199.6,218.2l-6,4.7l-11.8,55.9l-31.5,0.8l41.9-198.5l29.2-0.8c-0.4-0.6-0.9-1.1-1.3-1.7l-19.4-58.2
        c0,0-26.2,51.7-32.9,59.1c0,0-146.9,125.3-39.4,208.2c0,0,39.3,40,95.5,9.3c0,0,13.4-5.8,26.5-20.1l-5.9,0.2L199.6,218.2z"/>
    <path fill="#2A4456" d="M199.6,218.8l-5.5,4.6l0.2-0.4c-0.8,4.7-1.7,9.4-2.5,14.1l-2.5,14.1l-2.6,14.1l-2.6,14l-0.3,1.7l-1.8,0.1
        l-31.5,1.5l-3.5,0.2l0.7-3.6l4.8-24.9l4.9-24.9l5-24.9c1.6-8.3,3.3-16.6,5-24.9l5.1-24.8c1.7-8.3,3.4-16.6,5.2-24.8l5.3-24.8
        l5.4-24.8l0.7-3.2l3.2-0.1l29.2-0.6l-3,6.3l-1.3-1.7l-0.4-0.6l-0.2-0.6L207,50.7l-9.4-29.2l6.2,0.5c-2.6,5-5.3,10-8,15
        c-2.7,5-5.4,9.9-8.2,14.9c-2.8,4.9-5.6,9.8-8.5,14.7c-0.7,1.2-1.5,2.4-2.2,3.6c-0.7,1.2-1.5,2.4-2.3,3.6c-0.8,1.2-1.5,2.4-2.4,3.6
        c-0.4,0.6-0.8,1.2-1.3,1.8l-1.5,1.8l-0.1,0.1l-0.1,0.1c-3.8,3.2-7.6,6.7-11.3,10.2c-3.7,3.5-7.3,7.2-10.8,10.9
        c-3.5,3.7-7,7.5-10.3,11.4c-3.3,3.9-6.5,7.9-9.7,11.9c-6.3,8.1-12,16.6-17.1,25.4c-2.5,4.4-4.9,9-7.1,13.6
        c-2.1,4.6-4.1,9.3-5.8,14.2c-1.7,4.8-3.1,9.7-4.1,14.7c-1.1,5-1.7,10-2,15c-0.3,5-0.2,10.1,0.5,15c0.6,5,1.7,9.9,3.2,14.6
        c1.5,4.8,3.5,9.3,5.9,13.7c2.4,4.3,5.1,8.5,8.3,12.4l1.1,1.5l1.2,1.4c0.8,0.9,1.6,1.9,2.5,2.8c1.7,1.8,3.4,3.6,5.3,5.3
        c3.6,3.5,7.5,6.6,11.4,9.7l0.1,0.1l0.2,0.2c0.6,0.6,1.4,1.3,2.2,1.9c0.8,0.6,1.6,1.3,2.4,1.9c1.6,1.2,3.3,2.4,5,3.5
        c1.7,1.1,3.5,2.2,5.3,3.1c1.8,1,3.6,1.9,5.5,2.7c1.9,0.8,3.8,1.6,5.7,2.3c1,0.3,1.9,0.7,2.9,1l2.9,0.9l3,0.7c1,0.2,2,0.4,3,0.6
        c1,0.2,2,0.3,3,0.5l1.5,0.2l1.5,0.1c2,0.2,4.1,0.3,6.1,0.4c2,0,4.1,0,6.1-0.2c2-0.1,4.1-0.4,6.1-0.7c1-0.1,2-0.4,3-0.5
        c1-0.2,2-0.4,3-0.6l3-0.7c1-0.2,2-0.6,3-0.9c2-0.6,3.9-1.3,5.9-2c1-0.3,1.9-0.7,2.9-1.2l2.9-1.2c1.9-0.9,3.7-1.8,5.6-2.8l0.2-0.1
        l0,0c0.5-0.2,1.1-0.5,1.7-0.8c0.6-0.3,1.2-0.6,1.8-0.9c0.6-0.3,1.2-0.6,1.7-1l1.7-1c0.6-0.3,1.2-0.7,1.7-1.1l1.7-1.1
        c0.6-0.4,1.1-0.7,1.7-1.1l1.6-1.2c1.1-0.8,2.2-1.6,3.2-2.5l3.1-2.6c0.5-0.4,1-0.9,1.5-1.4l1.4-1.4l2.9-2.9l2,4.3l-5.9,0.1l-1.3,0
        l-0.7-1c-7.3-10-14.6-19.9-21.8-30c-3.6-5-7.2-10-10.8-15.1C206.5,228.6,203,223.7,199.6,218.8z M199.9,217.9
        c3.9,4.8,7.9,9.5,11.8,14.3c3.9,4.8,7.8,9.6,11.7,14.4c7.8,9.6,15.4,19.3,23.1,28.9l-2-1l5.9-0.3l6.3-0.3l-4.4,4.6l-3,3.1l-1.5,1.6
        c-0.5,0.5-1,1-1.6,1.5l-3.2,2.9c-1.1,1-2.2,1.8-3.3,2.7l-1.7,1.4c-0.6,0.4-1.2,0.8-1.8,1.3l-1.8,1.3c-0.6,0.4-1.2,0.8-1.8,1.2
        l-1.8,1.2c-0.6,0.4-1.2,0.7-1.9,1.1c-0.6,0.4-1.3,0.7-1.9,1.1c-0.7,0.3-1.3,0.7-2.1,1l0.3-0.1c-2,1-3.9,2.1-5.9,3l-3,1.4
        c-1,0.5-2,0.9-3,1.3c-2.1,0.8-4.1,1.6-6.2,2.3c-1.1,0.3-2.1,0.7-3.2,1l-3.2,0.9c-1.1,0.3-2.2,0.5-3.3,0.7c-1.1,0.2-2.2,0.5-3.3,0.6
        c-2.2,0.3-4.4,0.7-6.7,0.8c-2.2,0.2-4.5,0.2-6.7,0.3c-2.2-0.1-4.5-0.1-6.7-0.3l-1.7-0.1l-1.7-0.2c-1.1-0.2-2.2-0.3-3.3-0.5
        c-1.1-0.2-2.2-0.4-3.3-0.6l-3.3-0.8l-3.2-0.9c-1.1-0.3-2.1-0.7-3.2-1c-2.1-0.8-4.2-1.6-6.2-2.5c-2-0.9-4-1.9-6-3
        c-2-1.1-3.9-2.2-5.7-3.4c-1.9-1.2-3.7-2.5-5.5-3.9c-0.9-0.7-1.8-1.4-2.6-2.1c-0.9-0.8-1.7-1.5-2.6-2.4l0.4,0.3
        c-4.1-3.3-8.1-6.7-11.8-10.5c-1.9-1.8-3.6-3.8-5.4-5.8c-0.9-1-1.7-2.1-2.5-3.1l-1.2-1.5l-1.2-1.6c-3.2-4.2-5.9-8.8-8.3-13.6
        c-2.4-4.8-4.3-9.7-5.7-14.8c-1.4-5.1-2.3-10.3-2.7-15.6c-0.4-5.3-0.3-10.5,0.2-15.7c0.5-5.2,1.4-10.4,2.6-15.4
        c1.2-5.1,2.7-10,4.5-14.9c1.8-4.9,3.8-9.6,6-14.3c2.2-4.7,4.7-9.2,7.2-13.7c2.6-4.5,5.3-8.9,8.1-13.2c2.9-4.3,5.9-8.5,8.9-12.7
        c3.1-4.1,6.3-8.2,9.5-12.2c3.3-4,6.6-7.9,10-11.8c3.4-3.9,7-7.6,10.6-11.3c3.6-3.7,7.3-7.3,11.2-10.8l-0.2,0.2l1.1-1.5
        c0.4-0.5,0.7-1.1,1.1-1.7c0.8-1.1,1.4-2.3,2.2-3.5c0.7-1.2,1.4-2.4,2.1-3.6c0.7-1.2,1.4-2.4,2-3.7c2.7-4.9,5.3-9.9,7.9-14.9
        l7.6-15.1l7.5-15.1l3.6-7.2l2.6,7.6l10,29l9.9,29l-0.6-1.2l1.3,1.7l4.7,6l-7.7,0.3l-29.2,1l3.9-3.2l-5.1,24.8l-5.2,24.8
        c-1.7,8.3-3.5,16.5-5.3,24.8l-5.4,24.8c-1.8,8.3-3.6,16.5-5.4,24.8l-5.5,24.8l-5.6,24.7l-5.6,24.7l-2.8-3.4l31.6-0.2l-2.1,1.8
        l3.3-13.9l3.3-13.9l3.3-13.9c1.1-4.6,2.2-9.3,3.4-13.9l0.1-0.3l0.2-0.1l6.4-4.7L199.9,217.9z"/>
</g>
<g>
    <path fill="#007887" d="M219.2,202.4l40.6,54.6c8-15.3,13.2-35.6,11.2-62c0,0-1.8-10.7-6.9-27.2C246.5,182,235.7,190.6,219.2,202.4
        z"/>
    <g>
        <path fill="#2A4456" d="M219.8,202.5l10.3,13l10.5,13.4l10.5,13.4l10.5,13.4l-3.9,0.3l1.6-3.5c0.5-1.2,1.1-2.3,1.5-3.6l1.3-3.6
            c0.5-1.2,0.8-2.4,1.2-3.7l1.1-3.7c0.2-0.6,0.3-1.2,0.5-1.9l0.4-1.9l0.8-3.8c0.3-1.3,0.4-2.6,0.6-3.8l0.5-3.8
            c0.2-1.3,0.2-2.6,0.3-3.9l0.3-3.9c0.1-1.3,0.1-2.6,0.1-3.9l0-3.9c0-1.3,0-2.6-0.1-3.9l-0.6-7.7l0,0.4c-0.2-1.1-0.5-2.2-0.8-3.3
            l-0.8-3.3c-0.3-1.1-0.6-2.2-0.9-3.3l-0.9-3.3c-0.3-1.1-0.6-2.2-0.9-3.3l-0.9-3.3c-0.6-2.2-1.2-4.5-1.8-6.7l6.4,2
            c-1.9,1.4-3.8,2.9-5.7,4.3l-5.7,4.2l-5.8,4.2c-1.9,1.4-3.8,2.8-5.8,4.1c-1,0.7-2,1.3-3,2l-3,1.9l-6,3.8c-2,1.2-4.1,2.5-6.1,3.7
            C223.7,200.3,221.7,201.4,219.8,202.5z M219,202.1c1.7-1.7,3.5-3.3,5.2-4.9c1.7-1.6,3.5-3.2,5.3-4.8l5.3-4.7l2.7-2.3
            c0.9-0.8,1.8-1.5,2.7-2.3c1.7-1.6,3.5-3.1,5.3-4.7l5.3-4.7l5.4-4.6c1.8-1.5,3.6-3,5.4-4.5l4.7-3.8l1.7,5.8c0.7,2.3,1.4,4.5,2,6.8
            l1,3.4c0.4,1.1,0.6,2.3,0.9,3.4l0.8,3.5c0.3,1.2,0.5,2.3,0.8,3.5l0.7,3.5c0.2,1.2,0.4,2.4,0.6,3.6l0,0.3l0,0.1l0.1,8.2
            c0,0.7,0,1.4,0,2l-0.1,2l-0.2,4.1c-0.1,1.4-0.1,2.7-0.3,4.1l-0.5,4.1c-0.2,1.4-0.3,2.7-0.5,4.1l-0.7,4c-0.3,1.3-0.4,2.7-0.8,4
            l-1,4l-0.5,2c-0.2,0.7-0.3,1.3-0.6,2l-1.3,3.9c-0.4,1.3-0.8,2.6-1.4,3.8l-1.6,3.8c-0.5,1.3-1.2,2.5-1.8,3.7l-1.9,3.6l-1.7,3.4
            l-2.2-3.1l-9.8-13.9l-9.8-13.9l-9.8-13.9l-9.9-14.3L219,202.1z"/>
    </g>
</g>
<path fill="#007887" stroke="#2A4456" stroke-width="3" stroke-miterlimit="10" d="M198,201.1l-12.9,9.8l28.1-118.8l-11,0l-42,177.4
    l11,0l12.1-51.5l17.1-12.7l46.4,64l9.2,0c1-1.3,1.9-2.7,2.8-4.2l-50.8-64.9l4.1-3.1c19-14,29.7-23.1,49.2-39.6
    c0.4-0.4,0.9-0.8,1.4-1.1c-0.8-2.1-1.6-4.3-2.5-6.5C241,168.5,219.2,185,198,201.1z"/>
<path opacity="0.6" fill="#27AAE1" d="M162.6,97.4c0,0-114.4,94-52.2,166.4c0,0,9.6,5.8,16.9,0c0,0,13.5-11.9,7.3-33.7
    C134.5,230,106.8,167.3,162.6,97.4z"/>
<path opacity="0.65" fill="#FFFFFF" d="M162.6,97.4c0,0-97.1,82.8-44.3,146.4c0,0,8.1,5.1,14.3,0c0,0,11.5-10.5,6.2-29.7
    C138.8,214.1,115.3,158.9,162.6,97.4z"/>
</svg>
